<!DOCTYPE svg PUBLIC "-//W3C//DTD SVG 1.1//EN" "http://www.w3.org/Graphics/SVG/1.1/DTD/svg11.dtd">
<!-- Uploaded to: SVG Repo, www.svgrepo.com, Transformed by: SVG Repo Mixer Tools -->
<svg height="64px" width="64px" version="1.1" id="Layer_1" xmlns="http://www.w3.org/2000/svg" xmlns:xlink="http://www.w3.org/1999/xlink" viewBox="-51.2 -51.2 614.40 614.40" xml:space="preserve" fill="#ffffff" stroke="#ffffff" stroke-width="0.00512" transform="rotate(0)matrix(1, 0, 0, 1, 0, 0)">
<g id="SVGRepo_bgCarrier" stroke-width="0"/>
<g id="SVGRepo_tracerCarrier" stroke-linecap="round" stroke-linejoin="round" stroke="#CCCCCC" stroke-width="13.312000000000001"/>
<g id="SVGRepo_iconCarrier"> <path style="fill:#454545;" d="M512,512H130.169v-17.356c0-9.589,7.767-17.356,17.356-17.356h347.119 c9.589,0,17.356,7.767,17.356,17.356V512z"/> <g> <path style="fill:#8697CB;" d="M225.627,243.096c-2.222,0-4.452-0.85-6.144-2.551l-51.018-51.131 c-3.384-3.384-3.384-8.878,0.017-12.271c3.393-3.367,8.878-3.384,12.271,0.017l51.018,51.131c3.384,3.393,3.384,8.878-0.017,12.271 C230.062,242.245,227.849,243.096,225.627,243.096"/> <path style="fill:#8697CB;" d="M173.559,292.76c-4.799,0-8.678-3.879-8.678-8.678v-99.797c0-4.799,3.879-8.678,8.678-8.678 c4.799,0,8.678,3.879,8.678,8.678v99.797C182.237,288.881,178.358,292.76,173.559,292.76"/> <path style="fill:#8697CB;" d="M277.695,190.915H175.72c-4.799,0-8.678-3.879-8.678-8.678s3.879-8.678,8.678-8.678h101.975 c4.799,0,8.678,3.879,8.678,8.678S282.494,190.915,277.695,190.915"/> </g> <path style="fill:#535e7f;" d="M182.237,164.881c0,14.379-11.655,26.034-26.034,26.034c-14.379,0-26.034-11.655-26.034-26.034 c0-14.379,11.655-26.034,26.034-26.034C170.583,138.847,182.237,150.502,182.237,164.881"/> <g> <path style="fill:#c20000;" d="M95.458,147.525c-4.799,0-8.678-3.879-8.678-8.678c0-28.715,23.352-52.068,52.068-52.068 c4.799,0,8.678,3.879,8.678,8.678s-3.879,8.678-8.678,8.678c-19.144,0-34.712,15.568-34.712,34.712 C104.136,143.646,100.257,147.525,95.458,147.525"/> <path style="fill:#c20000;" d="M52.068,138.847c-4.799,0-8.678-3.879-8.678-8.678c0-47.85,38.929-86.78,86.78-86.78 c4.799,0,8.678,3.879,8.678,8.678s-3.879,8.678-8.678,8.678c-38.279,0-69.424,31.145-69.424,69.424 C60.746,134.968,56.867,138.847,52.068,138.847"/> <path style="fill:#c20000;" d="M8.678,138.847c-4.799,0-8.678-3.879-8.678-8.678C0,58.394,58.394,0,130.169,0 c4.799,0,8.678,3.879,8.678,8.678s-3.879,8.678-8.678,8.678c-62.204,0-112.814,50.61-112.814,112.814 C17.356,134.968,13.477,138.847,8.678,138.847"/> </g> <path style="fill:#454545;" d="M416.542,364.475c0,28.759-23.309,52.068-52.068,52.068c-28.759,0-52.068-23.309-52.068-52.068 c0-28.759,23.309-52.068,52.068-52.068C393.233,312.407,416.542,335.716,416.542,364.475"/> <path style="fill:#A5A5A4;" d="M364.475,416.542c-9.494,0-18.371-2.586-26.034-7.02v67.766h52.068v-67.766 C382.846,413.956,373.968,416.542,364.475,416.542"/> <path style="fill:#535e7f;" d="M312.407,364.475c0-28.759,23.309-52.068,52.068-52.068c14.631,0,27.83,6.057,37.289,15.768 c40.266-75.49,28.629-171.372-35.007-234.999l-282.26,282.26c66.794,66.803,169.073,76.167,246.046,28.481 C319.453,394.37,312.407,380.251,312.407,364.475"/> <path style="fill:#A5A5A4;" d="M373.153,364.475c0,4.79-3.888,8.678-8.678,8.678s-8.678-3.888-8.678-8.678s3.888-8.678,8.678-8.678 S373.153,359.684,373.153,364.475"/> </g>
</svg>